# xmcd
#
# Track frame offsets:
#	150
#	18682
#	36530
#	52524
#	71552
#	87795
#	104758
#	127063
#	148276
#	165018
#	184362
#	202849
#	217136
#	234957
#	252727
#	272573
#	292410
#	312931
#
# Disc length: 4396 seconds
#
# Revision: 1
# Processed by: cddbd v1.4PL0 Copyright (c) Steve Scherf et al.
# Submitted via: audiograbber 1.82.02
#
DISCID=1a112a12
DTITLE=Compilation - Золотая Русская Лирика 1
DYEAR=2003
DGENRE=Pop
TTITLE0=Непара - Другая Причина
TTITLE1=Алла Пугачева и Максим Галкин - Это-любовь
TTITLE2=Алсу - Вчера
TTITLE3=Николай Басков - Шарманка
TTITLE4=Кристина Орбакайте - Ди-ди-дам
TTITLE5=Филипп Киркоров - Жестокая Любовь
TTITLE6=Виктор Королев - Пьяная вишня
TTITLE7=Григорий Лепс - Натали
TTITLE8=Алексей Кортнев - Если б не было тебя
TTITLE9=Reflex - Я тебя всегда буду ждать
TTITLE10=Валерий Меладзе - Я без тебя не могу
TTITLE11=ВИА СЛИВКИ - Буду я Любить
TTITLE12=Чай Вдвоем - Ласковая Моя
TTITLE13=Анна Резникова - Прощальные слова
TTITLE14=Авраам Руссо - Далеко-далеко
TTITLE15=Валерий Леонтьев - Ты меня не забывай
TTITLE16=В. Петкун, А. Маракулин, А. Макарский - Belle
TTITLE17=Непара - Они знакомы давно
EXTD=
EXTT0=
EXTT1=
EXTT2=
EXTT3=
EXTT4=
EXTT5=
EXTT6=
EXTT7=
EXTT8=
EXTT9=
EXTT10=
EXTT11=
EXTT12=
EXTT13=
EXTT14=
EXTT15=
EXTT16=
EXTT17=
PLAYORDER=
